<svg id="Layer_1" data-name="Layer 1" xmlns="http://www.w3.org/2000/svg" viewBox="0 0 350 200"><defs><style>.cls-1,.cls-3,.cls-4,.cls-5{font-size:78px;font-family:ArialRoundedMTBold, Arial Rounded MT Bold;}.cls-1,.cls-5{fill:#fff;}.cls-1{stroke:#000;}.cls-1,.cls-6{stroke-miterlimit:10;}.cls-2{fill:#77a4aa;}.cls-4{fill:#00658b;}.cls-6,.cls-7{fill:none;stroke:#fff;stroke-width:5px;}.cls-7{stroke-linecap:round;stroke-linejoin:round;}</style></defs><title>Artboard 8</title><text class="cls-1" transform="translate(124.5 123.22) rotate(180) scale(0.98 1)">{</text><text class="cls-1" transform="translate(45.5 163.78) scale(0.98 1)">{</text><rect class="cls-2" x="160.02" y="104.08" width="116.02" height="68.92" rx="9.3"/><text class="cls-3" transform="matrix(0.98, 0, -0.22, 0.98, 20.13, 84.77)">Code</text><text class="cls-4" transform="matrix(0.98, 0, -0.22, 0.98, 18.67, 80)">Code</text><text class="cls-5" transform="matrix(0.98, 0, -0.22, 0.98, 15.75, 78.4)">Code</text><polyline class="cls-6" points="180.7 117.86 180.7 156.92 194.48 156.92"/><polyline class="cls-6" points="217.46 120.16 202.52 120.16 202.52 156.92 217.46 156.92"/><line class="cls-6" x1="205.52" y1="138.54" x2="215.86" y2="138.54"/><line class="cls-7" x1="224.35" y1="120.16" x2="238.13" y2="156.92"/><line class="cls-7" x1="223.2" y1="158.07" x2="239.28" y2="120.16"/><line class="cls-7" x1="246.17" y1="120.16" x2="259.96" y2="156.92"/><line class="cls-7" x1="245.03" y1="158.07" x2="261.11" y2="120.16"/></svg>