<svg id="Layer_1" data-name="Layer 1" xmlns="http://www.w3.org/2000/svg" viewBox="0 0 300 600"><defs><style>.cls-1,.cls-11,.cls-12,.cls-13,.cls-14,.cls-15,.cls-2{fill:none;}.cls-1{stroke:#339ee6;opacity:0.44;}.cls-1,.cls-11,.cls-12,.cls-13,.cls-14,.cls-2{stroke-miterlimit:10;}.cls-1,.cls-12,.cls-2{stroke-width:2px;}.cls-2{stroke:#000;}.cls-3{fill:#339ee6;}.cls-4{fill:#006ca7;}.cls-5{fill:#77a4aa;}.cls-6{fill:#026ba2;}.cls-10,.cls-7{fill:#fff;}.cls-10,.cls-8,.cls-9{font-size:56.37px;font-family:ArialRoundedMTBold, Arial Rounded MT Bold;}.cls-9{fill:#00658b;}.cls-11{stroke:#2a2e31;stroke-width:3px;}.cls-12,.cls-13{stroke:#77a4aa;}.cls-14,.cls-15{stroke:#fff;stroke-width:5px;}.cls-15{stroke-linecap:round;stroke-linejoin:round;}.cls-16{fill:#156da3;}</style></defs><title>codelexxl</title><rect class="cls-1" x="83" y="170.5" width="139" height="318" rx="12"/><rect class="cls-2" x="87.5" y="179" width="130.5" height="300.5" rx="12"/><rect class="cls-3" x="194" y="141.5" width="48" height="73" rx="12"/><rect class="cls-4" x="213" y="143.5" width="11" height="22" rx="2.36"/><path class="cls-4" d="M208.81,144.5H209a0,0,0,0,1,0,0v21a0,0,0,0,1,0,0H197a0,0,0,0,1,0,0v-9.19A11.81,11.81,0,0,1,208.81,144.5Z"/><rect class="cls-5" x="55.5" y="443" width="56" height="43.5" rx="4"/><rect class="cls-6" x="59.5" y="448" width="48" height="30" rx="2.38"/><polygon class="cls-7" points="61.5 450 81.5 450 73.5 475 61.5 475 61.5 450"/><rect class="cls-5" x="81" y="486.5" width="6" height="10"/><path class="cls-5" d="M71.48,491.5h24A1.48,1.48,0,0,1,97,493v3.52a0,0,0,0,1,0,0H70a0,0,0,0,1,0,0V493A1.48,1.48,0,0,1,71.48,491.5Z"/><rect class="cls-5" x="135" y="310.5" width="101" height="60" rx="9.3"/><text class="cls-8" transform="matrix(0.98, 0, -0.22, 0.98, 89.55, 289.15)">Code</text><text class="cls-9" transform="matrix(0.98, 0, -0.22, 0.98, 88.55, 286.15)">Code</text><text class="cls-10" transform="matrix(0.98, 0, -0.22, 0.98, 86.55, 285.15)">Code</text><path class="cls-11" d="M218,140.5s-.5-15.5-13.5-15.5-14,14-14,14,1,15-4,20-13,7-13,7"/><path class="cls-7" d="M201.19,191.56a9.12,9.12,0,0,0,.79,4.37,10.39,10.39,0,0,0,2.44,3.38c.26.23.52.45.8.66l.92.52c.27.2.59.36.88.56a5.65,5.65,0,0,1,.81.67,14,14,0,0,1,1.62,1.57,9.87,9.87,0,0,1,1.62,2l-.14.38a8.67,8.67,0,0,1-2.72.14,11.72,11.72,0,0,1-2.52-.73,13.6,13.6,0,0,1-4.43-4.89,7.85,7.85,0,0,1-.57-1.21,7,7,0,0,1-.4-1.28,8.14,8.14,0,0,1-.24-1.29,9.25,9.25,0,0,1,.76-5Z"/><path class="cls-12" d="M62.7,502.32,61,512.5h46l-1.61-9.64a2.82,2.82,0,0,0-2.79-2.36H64.85A2.17,2.17,0,0,0,62.7,502.32Z"/><line class="cls-12" x1="61.94" y1="506.84" x2="106.06" y2="506.84"/><path class="cls-13" d="M95.5,495s3-2,5,1-.64,4.5-.64,4.5"/><polyline class="cls-14" points="153 322.5 153 356.5 165 356.5"/><polyline class="cls-14" points="185 324.5 172 324.5 172 356.5 185 356.5"/><line class="cls-14" x1="172" y1="340.5" x2="181" y2="340.5"/><line class="cls-15" x1="191" y1="324.5" x2="203" y2="356.5"/><line class="cls-15" x1="190" y1="357.5" x2="204" y2="324.5"/><line class="cls-15" x1="210" y1="324.5" x2="222" y2="356.5"/><line class="cls-15" x1="209" y1="357.5" x2="223" y2="324.5"/><path class="cls-16" d="M228.28,145h2.38a8.62,8.62,0,0,1,8.62,8.62V166a0,0,0,0,1,0,0h-11a0,0,0,0,1,0,0V145A0,0,0,0,1,228.28,145Z"/></svg>